# xmcd
#
# Track frame offsets: 
#        150
#        20397
#        37928
#        57696
#        73849
#        93743
#        111908
#        129372
#        147557
#        165573
#        182965
#        203711
#        223848
#        243800
#        262138
#        278613
#
# Disc length: 3910 seconds
#
# Revision: 0
# Processed by: cddbd v1.5.2PL0 Copyright (c) Steve Scherf et al.
# Submitted via: ExactAudioCopy v0.99pb5
#
DISCID=f80f4410
DTITLE=Various Artist - ฮิตพันล้าน อีสานสะท้านเมือง
DYEAR=2010
DGENRE=Country
TTITLE0=ปอยฝ้าย มาลัยพร/มันต้องถอน
TTITLE1=พึ สะเดิด/จี่หอย
TTITLE2=ไผ่ พงศธร/คนบ้านเดียวกัน
TTITLE3=ไฮโร/หมีแพนด้า
TTITLE4=สาวมาด เมกะแดนซ์/ดาวมหาลัย
TTITLE5=ไหมไทย ใจตะวัน/เวลคัม ทู ทำนา
TTITLE6=เอิ้นชวัญ วรัญญา/บ่กล้าบอกครู (แต่หนูกล้าบอกอ้าย)
TTITLE7=ปอยฝ้าย มาลัยพร/กะเทยประท้วง
TTITLE8=ไผ่ พงศธร/สาวกันตรึม
TTITLE9=ลูกแพร อุไรพร/กันตรึมอินเตอร์
TTITLE10=พี สะเดิด/คิดฮอดกอดบ่ได้
TTITLE11=ศิริพร อำไพพงษ์/โสดบ่พออย่าหล่อให้เห็น
TTITLE12=วิเชียร-ซำเหมา/เต้ยโศก
TTITLE13=สาวมาด เมกะแดนซ์/สาวลาดพร้าว
TTITLE14=ร็อคออนซออน/เซ็นเบิ๊ดปี
TTITLE15=ร็อกหนหวย/คอเหล็กเด็กแนว
EXTD=
EXTT0=
EXTT1=
EXTT2=
EXTT3=
EXTT4=
EXTT5=
EXTT6=
EXTT7=
EXTT8=
EXTT9=
EXTT10=
EXTT11=
EXTT12=
EXTT13=
EXTT14=
EXTT15=
PLAYORDER=
